G04 #@! TF.FileFunction,Copper,L1,Top,Signal*
%FSLAX46Y46*%
G04 Gerber Fmt 4.6, Leading zero omitted, Abs format (unit mm)*
G04 Created by KiCad (PCBNEW 4.0.0-1rc2.201511201506+6189~38~ubuntu14.04.1-stable) date wo 25 nov 2015 23:52:55 CET*
%MOMM*%
G01*
G04 APERTURE LIST*
%ADD10C,0.100000*%
%ADD11R,1.550000X0.600000*%
%ADD12R,1.198880X1.198880*%
%ADD13R,1.727200X2.032000*%
%ADD14O,1.727200X2.032000*%
%ADD15R,1.250000X1.500000*%
%ADD16R,1.300000X1.500000*%
%ADD17C,0.508000*%
%ADD18C,0.254000*%
%ADD19C,0.127000*%
G04 APERTURE END LIST*
D10*
D11*
X252255000Y-131445000D03*
X252255000Y-130175000D03*
X252255000Y-128905000D03*
X252255000Y-127635000D03*
X246855000Y-127635000D03*
X246855000Y-128905000D03*
X246855000Y-130175000D03*
X246855000Y-131445000D03*
D12*
X257810000Y-129954020D03*
X257810000Y-127855980D03*
D13*
X256540000Y-134620000D03*
D14*
X254000000Y-134620000D03*
X251460000Y-134620000D03*
X248920000Y-134620000D03*
D13*
X236220000Y-134620000D03*
D14*
X238760000Y-134620000D03*
X241300000Y-134620000D03*
X243840000Y-134620000D03*
D15*
X234950000Y-130155000D03*
X234950000Y-127655000D03*
X240030000Y-130155000D03*
X240030000Y-127655000D03*
D16*
X242570000Y-130255000D03*
X242570000Y-127555000D03*
X255270000Y-127555000D03*
X255270000Y-130255000D03*
X237490000Y-130255000D03*
X237490000Y-127555000D03*
D17*
X234950000Y-130155000D02*
X234950000Y-133350000D01*
X234950000Y-133350000D02*
X236220000Y-134620000D01*
D18*
X240030000Y-127655000D02*
X237590000Y-127655000D01*
X237590000Y-127655000D02*
X237490000Y-127555000D01*
X234950000Y-127655000D02*
X237390000Y-127655000D01*
X237390000Y-127655000D02*
X237490000Y-127555000D01*
X240030000Y-127655000D02*
X240030000Y-127715000D01*
X240030000Y-127715000D02*
X242570000Y-130255000D01*
D17*
X256540000Y-134620000D02*
X253365000Y-131445000D01*
X253365000Y-131445000D02*
X252255000Y-131445000D01*
X256540000Y-133985000D02*
X256540000Y-134620000D01*
D18*
X255270000Y-127555000D02*
X257509020Y-127555000D01*
X257509020Y-127555000D02*
X257810000Y-127855980D01*
X246855000Y-128905000D02*
X247650000Y-128905000D01*
X254000000Y-133350000D02*
X254000000Y-134620000D01*
X253365000Y-132715000D02*
X254000000Y-133350000D01*
X251460000Y-132715000D02*
X253365000Y-132715000D01*
X247650000Y-128905000D02*
X251460000Y-132715000D01*
X254000000Y-134620000D02*
X254000000Y-133985000D01*
X246855000Y-130175000D02*
X247650000Y-130175000D01*
X247650000Y-130175000D02*
X251460000Y-133985000D01*
X251460000Y-133985000D02*
X251460000Y-134620000D01*
X238760000Y-134620000D02*
X238760000Y-133985000D01*
X238760000Y-133985000D02*
X240665000Y-132080000D01*
X240665000Y-132080000D02*
X243840000Y-132080000D01*
X243840000Y-132080000D02*
X244475000Y-131445000D01*
X244475000Y-131445000D02*
X244475000Y-127635000D01*
X244475000Y-127635000D02*
X245745000Y-126365000D01*
X245745000Y-126365000D02*
X248285000Y-126365000D01*
X248285000Y-126365000D02*
X250190000Y-128270000D01*
X250190000Y-128270000D02*
X250190000Y-129540000D01*
X250190000Y-129540000D02*
X250825000Y-130175000D01*
X250825000Y-130175000D02*
X252255000Y-130175000D01*
X246855000Y-127635000D02*
X245745000Y-127635000D01*
X241300000Y-133350000D02*
X241300000Y-134620000D01*
X241935000Y-132715000D02*
X241300000Y-133350000D01*
X244475000Y-132715000D02*
X241935000Y-132715000D01*
X245110000Y-132080000D02*
X244475000Y-132715000D01*
X245110000Y-128270000D02*
X245110000Y-132080000D01*
X245745000Y-127635000D02*
X245110000Y-128270000D01*
X247490000Y-127635000D02*
X246380000Y-127635000D01*
X242570000Y-127555000D02*
X245030000Y-125095000D01*
X249715000Y-125095000D02*
X252255000Y-127635000D01*
X245030000Y-125095000D02*
X249715000Y-125095000D01*
X255270000Y-130255000D02*
X253920000Y-128905000D01*
X253920000Y-128905000D02*
X252255000Y-128905000D01*
D19*
G36*
X243015102Y-126481280D02*
X241920000Y-126481280D01*
X241802342Y-126503419D01*
X241694279Y-126572955D01*
X241621785Y-126679055D01*
X241596280Y-126805000D01*
X241596280Y-128305000D01*
X241618419Y-128422658D01*
X241687955Y-128530721D01*
X241794055Y-128603215D01*
X241920000Y-128628720D01*
X243220000Y-128628720D01*
X243337658Y-128606581D01*
X243445721Y-128537045D01*
X243518215Y-128430945D01*
X243543720Y-128305000D01*
X243543720Y-127209898D01*
X245214118Y-125539500D01*
X249530882Y-125539500D01*
X251189356Y-127197974D01*
X251181785Y-127209055D01*
X251156280Y-127335000D01*
X251156280Y-127935000D01*
X251178419Y-128052658D01*
X251247955Y-128160721D01*
X251354055Y-128233215D01*
X251480000Y-128258720D01*
X253030000Y-128258720D01*
X253147658Y-128236581D01*
X253255721Y-128167045D01*
X253328215Y-128060945D01*
X253353720Y-127935000D01*
X253353720Y-127335000D01*
X253331581Y-127217342D01*
X253262045Y-127109279D01*
X253155945Y-127036785D01*
X253030000Y-127011280D01*
X252259898Y-127011280D01*
X250076118Y-124827500D01*
X258712500Y-124827500D01*
X258712500Y-127146742D01*
X258711021Y-127138882D01*
X258641485Y-127030819D01*
X258535385Y-126958325D01*
X258409440Y-126932820D01*
X257210560Y-126932820D01*
X257092902Y-126954959D01*
X256984839Y-127024495D01*
X256926075Y-127110500D01*
X256243720Y-127110500D01*
X256243720Y-126805000D01*
X256221581Y-126687342D01*
X256152045Y-126579279D01*
X256045945Y-126506785D01*
X255920000Y-126481280D01*
X254620000Y-126481280D01*
X254502342Y-126503419D01*
X254394279Y-126572955D01*
X254321785Y-126679055D01*
X254296280Y-126805000D01*
X254296280Y-128305000D01*
X254318419Y-128422658D01*
X254387955Y-128530721D01*
X254494055Y-128603215D01*
X254620000Y-128628720D01*
X255920000Y-128628720D01*
X256037658Y-128606581D01*
X256145721Y-128537045D01*
X256218215Y-128430945D01*
X256243720Y-128305000D01*
X256243720Y-127999500D01*
X256886840Y-127999500D01*
X256886840Y-128455420D01*
X256908979Y-128573078D01*
X256978515Y-128681141D01*
X257084615Y-128753635D01*
X257210560Y-128779140D01*
X258409440Y-128779140D01*
X258527098Y-128757001D01*
X258635161Y-128687465D01*
X258707655Y-128581365D01*
X258712500Y-128557440D01*
X258712500Y-128861525D01*
X258523119Y-128783080D01*
X258143375Y-128783080D01*
X258000500Y-128925955D01*
X258000500Y-129763520D01*
X258020500Y-129763520D01*
X258020500Y-130144520D01*
X258000500Y-130144520D01*
X258000500Y-130982085D01*
X258143375Y-131124960D01*
X258523119Y-131124960D01*
X258712500Y-131046515D01*
X258712500Y-136792500D01*
X234047500Y-136792500D01*
X234047500Y-131060081D01*
X234092955Y-131130721D01*
X234199055Y-131203215D01*
X234325000Y-131228720D01*
X234378500Y-131228720D01*
X234378500Y-133349995D01*
X234378499Y-133350000D01*
X234405620Y-133486342D01*
X234422003Y-133568704D01*
X234485884Y-133664309D01*
X234545888Y-133754112D01*
X235032680Y-134240904D01*
X235032680Y-135636000D01*
X235054819Y-135753658D01*
X235124355Y-135861721D01*
X235230455Y-135934215D01*
X235356400Y-135959720D01*
X237083600Y-135959720D01*
X237201258Y-135937581D01*
X237309321Y-135868045D01*
X237381815Y-135761945D01*
X237407320Y-135636000D01*
X237407320Y-134441475D01*
X237578900Y-134441475D01*
X237578900Y-134798525D01*
X237668806Y-135250512D01*
X237924836Y-135633689D01*
X238308013Y-135889719D01*
X238760000Y-135979625D01*
X239211987Y-135889719D01*
X239595164Y-135633689D01*
X239851194Y-135250512D01*
X239941100Y-134798525D01*
X239941100Y-134441475D01*
X239851194Y-133989488D01*
X239664115Y-133709503D01*
X240849118Y-132524500D01*
X241496882Y-132524500D01*
X240985691Y-133035691D01*
X240889336Y-133179897D01*
X240855750Y-133348742D01*
X240848013Y-133350281D01*
X240464836Y-133606311D01*
X240208806Y-133989488D01*
X240118900Y-134441475D01*
X240118900Y-134798525D01*
X240208806Y-135250512D01*
X240464836Y-135633689D01*
X240848013Y-135889719D01*
X241300000Y-135979625D01*
X241751987Y-135889719D01*
X242135164Y-135633689D01*
X242391194Y-135250512D01*
X242433167Y-135039498D01*
X242638438Y-135553403D01*
X243028778Y-135953771D01*
X243429333Y-136147487D01*
X243649500Y-136050506D01*
X243649500Y-134810500D01*
X244030500Y-134810500D01*
X244030500Y-136050506D01*
X244250667Y-136147487D01*
X244651222Y-135953771D01*
X245041562Y-135553403D01*
X245248975Y-135034135D01*
X247511025Y-135034135D01*
X247718438Y-135553403D01*
X248108778Y-135953771D01*
X248509333Y-136147487D01*
X248729500Y-136050506D01*
X248729500Y-134810500D01*
X247630303Y-134810500D01*
X247511025Y-135034135D01*
X245248975Y-135034135D01*
X245129697Y-134810500D01*
X244030500Y-134810500D01*
X243649500Y-134810500D01*
X243629500Y-134810500D01*
X243629500Y-134429500D01*
X243649500Y-134429500D01*
X243649500Y-134409500D01*
X244030500Y-134409500D01*
X244030500Y-134429500D01*
X245129697Y-134429500D01*
X245248975Y-134205865D01*
X247511025Y-134205865D01*
X247630303Y-134429500D01*
X248729500Y-134429500D01*
X248729500Y-133189494D01*
X248509333Y-133092513D01*
X248108778Y-133286229D01*
X247718438Y-133686597D01*
X247511025Y-134205865D01*
X245248975Y-134205865D01*
X245041562Y-133686597D01*
X244651222Y-133286229D01*
X244389179Y-133159500D01*
X244475000Y-133159500D01*
X244645103Y-133125664D01*
X244789309Y-133029309D01*
X245424309Y-132394309D01*
X245520665Y-132250102D01*
X245554500Y-132080000D01*
X245554500Y-131969732D01*
X245595506Y-132068729D01*
X245756272Y-132229494D01*
X245966322Y-132316500D01*
X246521625Y-132316500D01*
X246664500Y-132173625D01*
X246664500Y-131595000D01*
X247045500Y-131595000D01*
X247045500Y-132173625D01*
X247188375Y-132316500D01*
X247743678Y-132316500D01*
X247953728Y-132229494D01*
X248114494Y-132068729D01*
X248201500Y-131858679D01*
X248201500Y-131737875D01*
X248058625Y-131595000D01*
X247045500Y-131595000D01*
X246664500Y-131595000D01*
X246644500Y-131595000D01*
X246644500Y-131295000D01*
X246664500Y-131295000D01*
X246664500Y-131234500D01*
X247045500Y-131234500D01*
X247045500Y-131295000D01*
X248058625Y-131295000D01*
X248100004Y-131253622D01*
X250555885Y-133709503D01*
X250368806Y-133989488D01*
X250326833Y-134200502D01*
X250121562Y-133686597D01*
X249731222Y-133286229D01*
X249330667Y-133092513D01*
X249110500Y-133189494D01*
X249110500Y-134429500D01*
X249130500Y-134429500D01*
X249130500Y-134810500D01*
X249110500Y-134810500D01*
X249110500Y-136050506D01*
X249330667Y-136147487D01*
X249731222Y-135953771D01*
X250121562Y-135553403D01*
X250326833Y-135039498D01*
X250368806Y-135250512D01*
X250624836Y-135633689D01*
X251008013Y-135889719D01*
X251460000Y-135979625D01*
X251911987Y-135889719D01*
X252295164Y-135633689D01*
X252551194Y-135250512D01*
X252641100Y-134798525D01*
X252641100Y-134441475D01*
X252551194Y-133989488D01*
X252295164Y-133606311D01*
X251911987Y-133350281D01*
X251460000Y-133260375D01*
X251379922Y-133276304D01*
X247964309Y-129860691D01*
X247949118Y-129850541D01*
X247944991Y-129828609D01*
X251145691Y-133029309D01*
X251289898Y-133125665D01*
X251460000Y-133159500D01*
X253180882Y-133159500D01*
X253442299Y-133420917D01*
X253164836Y-133606311D01*
X252908806Y-133989488D01*
X252818900Y-134441475D01*
X252818900Y-134798525D01*
X252908806Y-135250512D01*
X253164836Y-135633689D01*
X253548013Y-135889719D01*
X254000000Y-135979625D01*
X254451987Y-135889719D01*
X254835164Y-135633689D01*
X255091194Y-135250512D01*
X255181100Y-134798525D01*
X255181100Y-134441475D01*
X255091194Y-133989488D01*
X255070915Y-133959139D01*
X255352680Y-134240903D01*
X255352680Y-135636000D01*
X255374819Y-135753658D01*
X255444355Y-135861721D01*
X255550455Y-135934215D01*
X255676400Y-135959720D01*
X257403600Y-135959720D01*
X257521258Y-135937581D01*
X257629321Y-135868045D01*
X257701815Y-135761945D01*
X257727320Y-135636000D01*
X257727320Y-133604000D01*
X257705181Y-133486342D01*
X257635645Y-133378279D01*
X257529545Y-133305785D01*
X257403600Y-133280280D01*
X256008503Y-133280280D01*
X253769112Y-131040888D01*
X253735872Y-131018678D01*
X253583704Y-130917003D01*
X253547418Y-130909785D01*
X253365000Y-130873499D01*
X253364995Y-130873500D01*
X253195044Y-130873500D01*
X253155945Y-130846785D01*
X253030000Y-130821280D01*
X251480000Y-130821280D01*
X251362342Y-130843419D01*
X251254279Y-130912955D01*
X251181785Y-131019055D01*
X251156280Y-131145000D01*
X251156280Y-131745000D01*
X251165009Y-131791391D01*
X247964309Y-128590691D01*
X247949118Y-128580541D01*
X247931581Y-128487342D01*
X247862045Y-128379279D01*
X247755945Y-128306785D01*
X247630000Y-128281280D01*
X246080000Y-128281280D01*
X245962342Y-128303419D01*
X245854279Y-128372955D01*
X245781785Y-128479055D01*
X245756280Y-128605000D01*
X245756280Y-129205000D01*
X245778419Y-129322658D01*
X245847955Y-129430721D01*
X245954055Y-129503215D01*
X246080000Y-129528720D01*
X247630000Y-129528720D01*
X247642710Y-129526328D01*
X247677226Y-129560844D01*
X247630000Y-129551280D01*
X246080000Y-129551280D01*
X245962342Y-129573419D01*
X245854279Y-129642955D01*
X245781785Y-129749055D01*
X245756280Y-129875000D01*
X245756280Y-130475000D01*
X245778419Y-130592658D01*
X245808229Y-130638985D01*
X245756272Y-130660506D01*
X245595506Y-130821271D01*
X245554500Y-130920268D01*
X245554500Y-128454118D01*
X245847932Y-128160686D01*
X245847955Y-128160721D01*
X245954055Y-128233215D01*
X246080000Y-128258720D01*
X247630000Y-128258720D01*
X247747658Y-128236581D01*
X247855721Y-128167045D01*
X247928215Y-128060945D01*
X247953720Y-127935000D01*
X247953720Y-127335000D01*
X247931581Y-127217342D01*
X247862045Y-127109279D01*
X247755945Y-127036785D01*
X247630000Y-127011280D01*
X246080000Y-127011280D01*
X245962342Y-127033419D01*
X245854279Y-127102955D01*
X245794463Y-127190500D01*
X245745000Y-127190500D01*
X245574898Y-127224335D01*
X245430691Y-127320691D01*
X244919500Y-127831882D01*
X244919500Y-127819118D01*
X245929118Y-126809500D01*
X248100882Y-126809500D01*
X249745500Y-128454118D01*
X249745500Y-129540000D01*
X249779336Y-129710103D01*
X249853852Y-129821625D01*
X249875691Y-129854309D01*
X250510691Y-130489309D01*
X250654898Y-130585665D01*
X250825000Y-130619500D01*
X251195691Y-130619500D01*
X251247955Y-130700721D01*
X251354055Y-130773215D01*
X251480000Y-130798720D01*
X253030000Y-130798720D01*
X253147658Y-130776581D01*
X253255721Y-130707045D01*
X253328215Y-130600945D01*
X253353720Y-130475000D01*
X253353720Y-129875000D01*
X253331581Y-129757342D01*
X253262045Y-129649279D01*
X253155945Y-129576785D01*
X253030000Y-129551280D01*
X251480000Y-129551280D01*
X251362342Y-129573419D01*
X251254279Y-129642955D01*
X251194463Y-129730500D01*
X251009118Y-129730500D01*
X250634500Y-129355882D01*
X250634500Y-128605000D01*
X251156280Y-128605000D01*
X251156280Y-129205000D01*
X251178419Y-129322658D01*
X251247955Y-129430721D01*
X251354055Y-129503215D01*
X251480000Y-129528720D01*
X253030000Y-129528720D01*
X253147658Y-129506581D01*
X253255721Y-129437045D01*
X253315537Y-129349500D01*
X253735882Y-129349500D01*
X254296280Y-129909898D01*
X254296280Y-131005000D01*
X254318419Y-131122658D01*
X254387955Y-131230721D01*
X254494055Y-131303215D01*
X254620000Y-131328720D01*
X255920000Y-131328720D01*
X256037658Y-131306581D01*
X256145721Y-131237045D01*
X256218215Y-131130945D01*
X256243720Y-131005000D01*
X256243720Y-130287395D01*
X256639060Y-130287395D01*
X256639060Y-130667138D01*
X256726066Y-130877188D01*
X256886831Y-131037954D01*
X257096881Y-131124960D01*
X257476625Y-131124960D01*
X257619500Y-130982085D01*
X257619500Y-130144520D01*
X256781935Y-130144520D01*
X256639060Y-130287395D01*
X256243720Y-130287395D01*
X256243720Y-129505000D01*
X256221581Y-129387342D01*
X256152045Y-129279279D01*
X256095878Y-129240902D01*
X256639060Y-129240902D01*
X256639060Y-129620645D01*
X256781935Y-129763520D01*
X257619500Y-129763520D01*
X257619500Y-128925955D01*
X257476625Y-128783080D01*
X257096881Y-128783080D01*
X256886831Y-128870086D01*
X256726066Y-129030852D01*
X256639060Y-129240902D01*
X256095878Y-129240902D01*
X256045945Y-129206785D01*
X255920000Y-129181280D01*
X254824898Y-129181280D01*
X254234309Y-128590691D01*
X254207949Y-128573078D01*
X254090103Y-128494336D01*
X253920000Y-128460500D01*
X253314309Y-128460500D01*
X253262045Y-128379279D01*
X253155945Y-128306785D01*
X253030000Y-128281280D01*
X251480000Y-128281280D01*
X251362342Y-128303419D01*
X251254279Y-128372955D01*
X251181785Y-128479055D01*
X251156280Y-128605000D01*
X250634500Y-128605000D01*
X250634500Y-128270000D01*
X250600664Y-128099897D01*
X250504309Y-127955691D01*
X248599309Y-126050691D01*
X248455103Y-125954336D01*
X248285000Y-125920500D01*
X245745000Y-125920500D01*
X245574897Y-125954336D01*
X245430691Y-126050691D01*
X244160691Y-127320691D01*
X244064336Y-127464897D01*
X244030500Y-127635000D01*
X244030500Y-131260882D01*
X243655882Y-131635500D01*
X240665000Y-131635500D01*
X240494897Y-131669336D01*
X240360242Y-131759309D01*
X240350691Y-131765691D01*
X238840078Y-133276304D01*
X238760000Y-133260375D01*
X238308013Y-133350281D01*
X237924836Y-133606311D01*
X237668806Y-133989488D01*
X237578900Y-134441475D01*
X237407320Y-134441475D01*
X237407320Y-133604000D01*
X237385181Y-133486342D01*
X237315645Y-133378279D01*
X237209545Y-133305785D01*
X237083600Y-133280280D01*
X235688504Y-133280280D01*
X235521500Y-133113276D01*
X235521500Y-131228720D01*
X235575000Y-131228720D01*
X235692658Y-131206581D01*
X235800721Y-131137045D01*
X235873215Y-131030945D01*
X235898720Y-130905000D01*
X235898720Y-130588375D01*
X236268500Y-130588375D01*
X236268500Y-131118678D01*
X236355506Y-131328728D01*
X236516271Y-131489494D01*
X236726321Y-131576500D01*
X237156625Y-131576500D01*
X237299500Y-131433625D01*
X237299500Y-130445500D01*
X237680500Y-130445500D01*
X237680500Y-131433625D01*
X237823375Y-131576500D01*
X238253679Y-131576500D01*
X238463729Y-131489494D01*
X238624494Y-131328728D01*
X238711500Y-131118678D01*
X238711500Y-130588375D01*
X238611500Y-130488375D01*
X238833500Y-130488375D01*
X238833500Y-131018678D01*
X238920506Y-131228728D01*
X239081271Y-131389494D01*
X239291321Y-131476500D01*
X239696625Y-131476500D01*
X239839500Y-131333625D01*
X239839500Y-130345500D01*
X240220500Y-130345500D01*
X240220500Y-131333625D01*
X240363375Y-131476500D01*
X240768679Y-131476500D01*
X240978729Y-131389494D01*
X241139494Y-131228728D01*
X241226500Y-131018678D01*
X241226500Y-130488375D01*
X241083625Y-130345500D01*
X240220500Y-130345500D01*
X239839500Y-130345500D01*
X238976375Y-130345500D01*
X238833500Y-130488375D01*
X238611500Y-130488375D01*
X238568625Y-130445500D01*
X237680500Y-130445500D01*
X237299500Y-130445500D01*
X236411375Y-130445500D01*
X236268500Y-130588375D01*
X235898720Y-130588375D01*
X235898720Y-129405000D01*
X235896147Y-129391322D01*
X236268500Y-129391322D01*
X236268500Y-129921625D01*
X236411375Y-130064500D01*
X237299500Y-130064500D01*
X237299500Y-129076375D01*
X237680500Y-129076375D01*
X237680500Y-130064500D01*
X238568625Y-130064500D01*
X238711500Y-129921625D01*
X238711500Y-129391322D01*
X238670079Y-129291322D01*
X238833500Y-129291322D01*
X238833500Y-129821625D01*
X238976375Y-129964500D01*
X239839500Y-129964500D01*
X239839500Y-128976375D01*
X239696625Y-128833500D01*
X239291321Y-128833500D01*
X239081271Y-128920506D01*
X238920506Y-129081272D01*
X238833500Y-129291322D01*
X238670079Y-129291322D01*
X238624494Y-129181272D01*
X238463729Y-129020506D01*
X238253679Y-128933500D01*
X237823375Y-128933500D01*
X237680500Y-129076375D01*
X237299500Y-129076375D01*
X237156625Y-128933500D01*
X236726321Y-128933500D01*
X236516271Y-129020506D01*
X236355506Y-129181272D01*
X236268500Y-129391322D01*
X235896147Y-129391322D01*
X235876581Y-129287342D01*
X235807045Y-129179279D01*
X235700945Y-129106785D01*
X235575000Y-129081280D01*
X234325000Y-129081280D01*
X234207342Y-129103419D01*
X234099279Y-129172955D01*
X234047500Y-129248737D01*
X234047500Y-128560081D01*
X234092955Y-128630721D01*
X234199055Y-128703215D01*
X234325000Y-128728720D01*
X235575000Y-128728720D01*
X235692658Y-128706581D01*
X235800721Y-128637045D01*
X235873215Y-128530945D01*
X235898720Y-128405000D01*
X235898720Y-128099500D01*
X236516280Y-128099500D01*
X236516280Y-128305000D01*
X236538419Y-128422658D01*
X236607955Y-128530721D01*
X236714055Y-128603215D01*
X236840000Y-128628720D01*
X238140000Y-128628720D01*
X238257658Y-128606581D01*
X238365721Y-128537045D01*
X238438215Y-128430945D01*
X238463720Y-128305000D01*
X238463720Y-128099500D01*
X239081280Y-128099500D01*
X239081280Y-128405000D01*
X239103419Y-128522658D01*
X239172955Y-128630721D01*
X239279055Y-128703215D01*
X239405000Y-128728720D01*
X240415102Y-128728720D01*
X240519882Y-128833500D01*
X240363375Y-128833500D01*
X240220500Y-128976375D01*
X240220500Y-129964500D01*
X241083625Y-129964500D01*
X241226500Y-129821625D01*
X241226500Y-129540118D01*
X241596280Y-129909898D01*
X241596280Y-131005000D01*
X241618419Y-131122658D01*
X241687955Y-131230721D01*
X241794055Y-131303215D01*
X241920000Y-131328720D01*
X243220000Y-131328720D01*
X243337658Y-131306581D01*
X243445721Y-131237045D01*
X243518215Y-131130945D01*
X243543720Y-131005000D01*
X243543720Y-129505000D01*
X243521581Y-129387342D01*
X243452045Y-129279279D01*
X243345945Y-129206785D01*
X243220000Y-129181280D01*
X242124898Y-129181280D01*
X240978720Y-128035102D01*
X240978720Y-126905000D01*
X240956581Y-126787342D01*
X240887045Y-126679279D01*
X240780945Y-126606785D01*
X240655000Y-126581280D01*
X239405000Y-126581280D01*
X239287342Y-126603419D01*
X239179279Y-126672955D01*
X239106785Y-126779055D01*
X239081280Y-126905000D01*
X239081280Y-127210500D01*
X238463720Y-127210500D01*
X238463720Y-126805000D01*
X238441581Y-126687342D01*
X238372045Y-126579279D01*
X238265945Y-126506785D01*
X238140000Y-126481280D01*
X236840000Y-126481280D01*
X236722342Y-126503419D01*
X236614279Y-126572955D01*
X236541785Y-126679055D01*
X236516280Y-126805000D01*
X236516280Y-127210500D01*
X235898720Y-127210500D01*
X235898720Y-126905000D01*
X235876581Y-126787342D01*
X235807045Y-126679279D01*
X235700945Y-126606785D01*
X235575000Y-126581280D01*
X234325000Y-126581280D01*
X234207342Y-126603419D01*
X234099279Y-126672955D01*
X234047500Y-126748737D01*
X234047500Y-124827500D01*
X244668882Y-124827500D01*
X243015102Y-126481280D01*
X243015102Y-126481280D01*
G37*
X243015102Y-126481280D02*
X241920000Y-126481280D01*
X241802342Y-126503419D01*
X241694279Y-126572955D01*
X241621785Y-126679055D01*
X241596280Y-126805000D01*
X241596280Y-128305000D01*
X241618419Y-128422658D01*
X241687955Y-128530721D01*
X241794055Y-128603215D01*
X241920000Y-128628720D01*
X243220000Y-128628720D01*
X243337658Y-128606581D01*
X243445721Y-128537045D01*
X243518215Y-128430945D01*
X243543720Y-128305000D01*
X243543720Y-127209898D01*
X245214118Y-125539500D01*
X249530882Y-125539500D01*
X251189356Y-127197974D01*
X251181785Y-127209055D01*
X251156280Y-127335000D01*
X251156280Y-127935000D01*
X251178419Y-128052658D01*
X251247955Y-128160721D01*
X251354055Y-128233215D01*
X251480000Y-128258720D01*
X253030000Y-128258720D01*
X253147658Y-128236581D01*
X253255721Y-128167045D01*
X253328215Y-128060945D01*
X253353720Y-127935000D01*
X253353720Y-127335000D01*
X253331581Y-127217342D01*
X253262045Y-127109279D01*
X253155945Y-127036785D01*
X253030000Y-127011280D01*
X252259898Y-127011280D01*
X250076118Y-124827500D01*
X258712500Y-124827500D01*
X258712500Y-127146742D01*
X258711021Y-127138882D01*
X258641485Y-127030819D01*
X258535385Y-126958325D01*
X258409440Y-126932820D01*
X257210560Y-126932820D01*
X257092902Y-126954959D01*
X256984839Y-127024495D01*
X256926075Y-127110500D01*
X256243720Y-127110500D01*
X256243720Y-126805000D01*
X256221581Y-126687342D01*
X256152045Y-126579279D01*
X256045945Y-126506785D01*
X255920000Y-126481280D01*
X254620000Y-126481280D01*
X254502342Y-126503419D01*
X254394279Y-126572955D01*
X254321785Y-126679055D01*
X254296280Y-126805000D01*
X254296280Y-128305000D01*
X254318419Y-128422658D01*
X254387955Y-128530721D01*
X254494055Y-128603215D01*
X254620000Y-128628720D01*
X255920000Y-128628720D01*
X256037658Y-128606581D01*
X256145721Y-128537045D01*
X256218215Y-128430945D01*
X256243720Y-128305000D01*
X256243720Y-127999500D01*
X256886840Y-127999500D01*
X256886840Y-128455420D01*
X256908979Y-128573078D01*
X256978515Y-128681141D01*
X257084615Y-128753635D01*
X257210560Y-128779140D01*
X258409440Y-128779140D01*
X258527098Y-128757001D01*
X258635161Y-128687465D01*
X258707655Y-128581365D01*
X258712500Y-128557440D01*
X258712500Y-128861525D01*
X258523119Y-128783080D01*
X258143375Y-128783080D01*
X258000500Y-128925955D01*
X258000500Y-129763520D01*
X258020500Y-129763520D01*
X258020500Y-130144520D01*
X258000500Y-130144520D01*
X258000500Y-130982085D01*
X258143375Y-131124960D01*
X258523119Y-131124960D01*
X258712500Y-131046515D01*
X258712500Y-136792500D01*
X234047500Y-136792500D01*
X234047500Y-131060081D01*
X234092955Y-131130721D01*
X234199055Y-131203215D01*
X234325000Y-131228720D01*
X234378500Y-131228720D01*
X234378500Y-133349995D01*
X234378499Y-133350000D01*
X234405620Y-133486342D01*
X234422003Y-133568704D01*
X234485884Y-133664309D01*
X234545888Y-133754112D01*
X235032680Y-134240904D01*
X235032680Y-135636000D01*
X235054819Y-135753658D01*
X235124355Y-135861721D01*
X235230455Y-135934215D01*
X235356400Y-135959720D01*
X237083600Y-135959720D01*
X237201258Y-135937581D01*
X237309321Y-135868045D01*
X237381815Y-135761945D01*
X237407320Y-135636000D01*
X237407320Y-134441475D01*
X237578900Y-134441475D01*
X237578900Y-134798525D01*
X237668806Y-135250512D01*
X237924836Y-135633689D01*
X238308013Y-135889719D01*
X238760000Y-135979625D01*
X239211987Y-135889719D01*
X239595164Y-135633689D01*
X239851194Y-135250512D01*
X239941100Y-134798525D01*
X239941100Y-134441475D01*
X239851194Y-133989488D01*
X239664115Y-133709503D01*
X240849118Y-132524500D01*
X241496882Y-132524500D01*
X240985691Y-133035691D01*
X240889336Y-133179897D01*
X240855750Y-133348742D01*
X240848013Y-133350281D01*
X240464836Y-133606311D01*
X240208806Y-133989488D01*
X240118900Y-134441475D01*
X240118900Y-134798525D01*
X240208806Y-135250512D01*
X240464836Y-135633689D01*
X240848013Y-135889719D01*
X241300000Y-135979625D01*
X241751987Y-135889719D01*
X242135164Y-135633689D01*
X242391194Y-135250512D01*
X242433167Y-135039498D01*
X242638438Y-135553403D01*
X243028778Y-135953771D01*
X243429333Y-136147487D01*
X243649500Y-136050506D01*
X243649500Y-134810500D01*
X244030500Y-134810500D01*
X244030500Y-136050506D01*
X244250667Y-136147487D01*
X244651222Y-135953771D01*
X245041562Y-135553403D01*
X245248975Y-135034135D01*
X247511025Y-135034135D01*
X247718438Y-135553403D01*
X248108778Y-135953771D01*
X248509333Y-136147487D01*
X248729500Y-136050506D01*
X248729500Y-134810500D01*
X247630303Y-134810500D01*
X247511025Y-135034135D01*
X245248975Y-135034135D01*
X245129697Y-134810500D01*
X244030500Y-134810500D01*
X243649500Y-134810500D01*
X243629500Y-134810500D01*
X243629500Y-134429500D01*
X243649500Y-134429500D01*
X243649500Y-134409500D01*
X244030500Y-134409500D01*
X244030500Y-134429500D01*
X245129697Y-134429500D01*
X245248975Y-134205865D01*
X247511025Y-134205865D01*
X247630303Y-134429500D01*
X248729500Y-134429500D01*
X248729500Y-133189494D01*
X248509333Y-133092513D01*
X248108778Y-133286229D01*
X247718438Y-133686597D01*
X247511025Y-134205865D01*
X245248975Y-134205865D01*
X245041562Y-133686597D01*
X244651222Y-133286229D01*
X244389179Y-133159500D01*
X244475000Y-133159500D01*
X244645103Y-133125664D01*
X244789309Y-133029309D01*
X245424309Y-132394309D01*
X245520665Y-132250102D01*
X245554500Y-132080000D01*
X245554500Y-131969732D01*
X245595506Y-132068729D01*
X245756272Y-132229494D01*
X245966322Y-132316500D01*
X246521625Y-132316500D01*
X246664500Y-132173625D01*
X246664500Y-131595000D01*
X247045500Y-131595000D01*
X247045500Y-132173625D01*
X247188375Y-132316500D01*
X247743678Y-132316500D01*
X247953728Y-132229494D01*
X248114494Y-132068729D01*
X248201500Y-131858679D01*
X248201500Y-131737875D01*
X248058625Y-131595000D01*
X247045500Y-131595000D01*
X246664500Y-131595000D01*
X246644500Y-131595000D01*
X246644500Y-131295000D01*
X246664500Y-131295000D01*
X246664500Y-131234500D01*
X247045500Y-131234500D01*
X247045500Y-131295000D01*
X248058625Y-131295000D01*
X248100004Y-131253622D01*
X250555885Y-133709503D01*
X250368806Y-133989488D01*
X250326833Y-134200502D01*
X250121562Y-133686597D01*
X249731222Y-133286229D01*
X249330667Y-133092513D01*
X249110500Y-133189494D01*
X249110500Y-134429500D01*
X249130500Y-134429500D01*
X249130500Y-134810500D01*
X249110500Y-134810500D01*
X249110500Y-136050506D01*
X249330667Y-136147487D01*
X249731222Y-135953771D01*
X250121562Y-135553403D01*
X250326833Y-135039498D01*
X250368806Y-135250512D01*
X250624836Y-135633689D01*
X251008013Y-135889719D01*
X251460000Y-135979625D01*
X251911987Y-135889719D01*
X252295164Y-135633689D01*
X252551194Y-135250512D01*
X252641100Y-134798525D01*
X252641100Y-134441475D01*
X252551194Y-133989488D01*
X252295164Y-133606311D01*
X251911987Y-133350281D01*
X251460000Y-133260375D01*
X251379922Y-133276304D01*
X247964309Y-129860691D01*
X247949118Y-129850541D01*
X247944991Y-129828609D01*
X251145691Y-133029309D01*
X251289898Y-133125665D01*
X251460000Y-133159500D01*
X253180882Y-133159500D01*
X253442299Y-133420917D01*
X253164836Y-133606311D01*
X252908806Y-133989488D01*
X252818900Y-134441475D01*
X252818900Y-134798525D01*
X252908806Y-135250512D01*
X253164836Y-135633689D01*
X253548013Y-135889719D01*
X254000000Y-135979625D01*
X254451987Y-135889719D01*
X254835164Y-135633689D01*
X255091194Y-135250512D01*
X255181100Y-134798525D01*
X255181100Y-134441475D01*
X255091194Y-133989488D01*
X255070915Y-133959139D01*
X255352680Y-134240903D01*
X255352680Y-135636000D01*
X255374819Y-135753658D01*
X255444355Y-135861721D01*
X255550455Y-135934215D01*
X255676400Y-135959720D01*
X257403600Y-135959720D01*
X257521258Y-135937581D01*
X257629321Y-135868045D01*
X257701815Y-135761945D01*
X257727320Y-135636000D01*
X257727320Y-133604000D01*
X257705181Y-133486342D01*
X257635645Y-133378279D01*
X257529545Y-133305785D01*
X257403600Y-133280280D01*
X256008503Y-133280280D01*
X253769112Y-131040888D01*
X253735872Y-131018678D01*
X253583704Y-130917003D01*
X253547418Y-130909785D01*
X253365000Y-130873499D01*
X253364995Y-130873500D01*
X253195044Y-130873500D01*
X253155945Y-130846785D01*
X253030000Y-130821280D01*
X251480000Y-130821280D01*
X251362342Y-130843419D01*
X251254279Y-130912955D01*
X251181785Y-131019055D01*
X251156280Y-131145000D01*
X251156280Y-131745000D01*
X251165009Y-131791391D01*
X247964309Y-128590691D01*
X247949118Y-128580541D01*
X247931581Y-128487342D01*
X247862045Y-128379279D01*
X247755945Y-128306785D01*
X247630000Y-128281280D01*
X246080000Y-128281280D01*
X245962342Y-128303419D01*
X245854279Y-128372955D01*
X245781785Y-128479055D01*
X245756280Y-128605000D01*
X245756280Y-129205000D01*
X245778419Y-129322658D01*
X245847955Y-129430721D01*
X245954055Y-129503215D01*
X246080000Y-129528720D01*
X247630000Y-129528720D01*
X247642710Y-129526328D01*
X247677226Y-129560844D01*
X247630000Y-129551280D01*
X246080000Y-129551280D01*
X245962342Y-129573419D01*
X245854279Y-129642955D01*
X245781785Y-129749055D01*
X245756280Y-129875000D01*
X245756280Y-130475000D01*
X245778419Y-130592658D01*
X245808229Y-130638985D01*
X245756272Y-130660506D01*
X245595506Y-130821271D01*
X245554500Y-130920268D01*
X245554500Y-128454118D01*
X245847932Y-128160686D01*
X245847955Y-128160721D01*
X245954055Y-128233215D01*
X246080000Y-128258720D01*
X247630000Y-128258720D01*
X247747658Y-128236581D01*
X247855721Y-128167045D01*
X247928215Y-128060945D01*
X247953720Y-127935000D01*
X247953720Y-127335000D01*
X247931581Y-127217342D01*
X247862045Y-127109279D01*
X247755945Y-127036785D01*
X247630000Y-127011280D01*
X246080000Y-127011280D01*
X245962342Y-127033419D01*
X245854279Y-127102955D01*
X245794463Y-127190500D01*
X245745000Y-127190500D01*
X245574898Y-127224335D01*
X245430691Y-127320691D01*
X244919500Y-127831882D01*
X244919500Y-127819118D01*
X245929118Y-126809500D01*
X248100882Y-126809500D01*
X249745500Y-128454118D01*
X249745500Y-129540000D01*
X249779336Y-129710103D01*
X249853852Y-129821625D01*
X249875691Y-129854309D01*
X250510691Y-130489309D01*
X250654898Y-130585665D01*
X250825000Y-130619500D01*
X251195691Y-130619500D01*
X251247955Y-130700721D01*
X251354055Y-130773215D01*
X251480000Y-130798720D01*
X253030000Y-130798720D01*
X253147658Y-130776581D01*
X253255721Y-130707045D01*
X253328215Y-130600945D01*
X253353720Y-130475000D01*
X253353720Y-129875000D01*
X253331581Y-129757342D01*
X253262045Y-129649279D01*
X253155945Y-129576785D01*
X253030000Y-129551280D01*
X251480000Y-129551280D01*
X251362342Y-129573419D01*
X251254279Y-129642955D01*
X251194463Y-129730500D01*
X251009118Y-129730500D01*
X250634500Y-129355882D01*
X250634500Y-128605000D01*
X251156280Y-128605000D01*
X251156280Y-129205000D01*
X251178419Y-129322658D01*
X251247955Y-129430721D01*
X251354055Y-129503215D01*
X251480000Y-129528720D01*
X253030000Y-129528720D01*
X253147658Y-129506581D01*
X253255721Y-129437045D01*
X253315537Y-129349500D01*
X253735882Y-129349500D01*
X254296280Y-129909898D01*
X254296280Y-131005000D01*
X254318419Y-131122658D01*
X254387955Y-131230721D01*
X254494055Y-131303215D01*
X254620000Y-131328720D01*
X255920000Y-131328720D01*
X256037658Y-131306581D01*
X256145721Y-131237045D01*
X256218215Y-131130945D01*
X256243720Y-131005000D01*
X256243720Y-130287395D01*
X256639060Y-130287395D01*
X256639060Y-130667138D01*
X256726066Y-130877188D01*
X256886831Y-131037954D01*
X257096881Y-131124960D01*
X257476625Y-131124960D01*
X257619500Y-130982085D01*
X257619500Y-130144520D01*
X256781935Y-130144520D01*
X256639060Y-130287395D01*
X256243720Y-130287395D01*
X256243720Y-129505000D01*
X256221581Y-129387342D01*
X256152045Y-129279279D01*
X256095878Y-129240902D01*
X256639060Y-129240902D01*
X256639060Y-129620645D01*
X256781935Y-129763520D01*
X257619500Y-129763520D01*
X257619500Y-128925955D01*
X257476625Y-128783080D01*
X257096881Y-128783080D01*
X256886831Y-128870086D01*
X256726066Y-129030852D01*
X256639060Y-129240902D01*
X256095878Y-129240902D01*
X256045945Y-129206785D01*
X255920000Y-129181280D01*
X254824898Y-129181280D01*
X254234309Y-128590691D01*
X254207949Y-128573078D01*
X254090103Y-128494336D01*
X253920000Y-128460500D01*
X253314309Y-128460500D01*
X253262045Y-128379279D01*
X253155945Y-128306785D01*
X253030000Y-128281280D01*
X251480000Y-128281280D01*
X251362342Y-128303419D01*
X251254279Y-128372955D01*
X251181785Y-128479055D01*
X251156280Y-128605000D01*
X250634500Y-128605000D01*
X250634500Y-128270000D01*
X250600664Y-128099897D01*
X250504309Y-127955691D01*
X248599309Y-126050691D01*
X248455103Y-125954336D01*
X248285000Y-125920500D01*
X245745000Y-125920500D01*
X245574897Y-125954336D01*
X245430691Y-126050691D01*
X244160691Y-127320691D01*
X244064336Y-127464897D01*
X244030500Y-127635000D01*
X244030500Y-131260882D01*
X243655882Y-131635500D01*
X240665000Y-131635500D01*
X240494897Y-131669336D01*
X240360242Y-131759309D01*
X240350691Y-131765691D01*
X238840078Y-133276304D01*
X238760000Y-133260375D01*
X238308013Y-133350281D01*
X237924836Y-133606311D01*
X237668806Y-133989488D01*
X237578900Y-134441475D01*
X237407320Y-134441475D01*
X237407320Y-133604000D01*
X237385181Y-133486342D01*
X237315645Y-133378279D01*
X237209545Y-133305785D01*
X237083600Y-133280280D01*
X235688504Y-133280280D01*
X235521500Y-133113276D01*
X235521500Y-131228720D01*
X235575000Y-131228720D01*
X235692658Y-131206581D01*
X235800721Y-131137045D01*
X235873215Y-131030945D01*
X235898720Y-130905000D01*
X235898720Y-130588375D01*
X236268500Y-130588375D01*
X236268500Y-131118678D01*
X236355506Y-131328728D01*
X236516271Y-131489494D01*
X236726321Y-131576500D01*
X237156625Y-131576500D01*
X237299500Y-131433625D01*
X237299500Y-130445500D01*
X237680500Y-130445500D01*
X237680500Y-131433625D01*
X237823375Y-131576500D01*
X238253679Y-131576500D01*
X238463729Y-131489494D01*
X238624494Y-131328728D01*
X238711500Y-131118678D01*
X238711500Y-130588375D01*
X238611500Y-130488375D01*
X238833500Y-130488375D01*
X238833500Y-131018678D01*
X238920506Y-131228728D01*
X239081271Y-131389494D01*
X239291321Y-131476500D01*
X239696625Y-131476500D01*
X239839500Y-131333625D01*
X239839500Y-130345500D01*
X240220500Y-130345500D01*
X240220500Y-131333625D01*
X240363375Y-131476500D01*
X240768679Y-131476500D01*
X240978729Y-131389494D01*
X241139494Y-131228728D01*
X241226500Y-131018678D01*
X241226500Y-130488375D01*
X241083625Y-130345500D01*
X240220500Y-130345500D01*
X239839500Y-130345500D01*
X238976375Y-130345500D01*
X238833500Y-130488375D01*
X238611500Y-130488375D01*
X238568625Y-130445500D01*
X237680500Y-130445500D01*
X237299500Y-130445500D01*
X236411375Y-130445500D01*
X236268500Y-130588375D01*
X235898720Y-130588375D01*
X235898720Y-129405000D01*
X235896147Y-129391322D01*
X236268500Y-129391322D01*
X236268500Y-129921625D01*
X236411375Y-130064500D01*
X237299500Y-130064500D01*
X237299500Y-129076375D01*
X237680500Y-129076375D01*
X237680500Y-130064500D01*
X238568625Y-130064500D01*
X238711500Y-129921625D01*
X238711500Y-129391322D01*
X238670079Y-129291322D01*
X238833500Y-129291322D01*
X238833500Y-129821625D01*
X238976375Y-129964500D01*
X239839500Y-129964500D01*
X239839500Y-128976375D01*
X239696625Y-128833500D01*
X239291321Y-128833500D01*
X239081271Y-128920506D01*
X238920506Y-129081272D01*
X238833500Y-129291322D01*
X238670079Y-129291322D01*
X238624494Y-129181272D01*
X238463729Y-129020506D01*
X238253679Y-128933500D01*
X237823375Y-128933500D01*
X237680500Y-129076375D01*
X237299500Y-129076375D01*
X237156625Y-128933500D01*
X236726321Y-128933500D01*
X236516271Y-129020506D01*
X236355506Y-129181272D01*
X236268500Y-129391322D01*
X235896147Y-129391322D01*
X235876581Y-129287342D01*
X235807045Y-129179279D01*
X235700945Y-129106785D01*
X235575000Y-129081280D01*
X234325000Y-129081280D01*
X234207342Y-129103419D01*
X234099279Y-129172955D01*
X234047500Y-129248737D01*
X234047500Y-128560081D01*
X234092955Y-128630721D01*
X234199055Y-128703215D01*
X234325000Y-128728720D01*
X235575000Y-128728720D01*
X235692658Y-128706581D01*
X235800721Y-128637045D01*
X235873215Y-128530945D01*
X235898720Y-128405000D01*
X235898720Y-128099500D01*
X236516280Y-128099500D01*
X236516280Y-128305000D01*
X236538419Y-128422658D01*
X236607955Y-128530721D01*
X236714055Y-128603215D01*
X236840000Y-128628720D01*
X238140000Y-128628720D01*
X238257658Y-128606581D01*
X238365721Y-128537045D01*
X238438215Y-128430945D01*
X238463720Y-128305000D01*
X238463720Y-128099500D01*
X239081280Y-128099500D01*
X239081280Y-128405000D01*
X239103419Y-128522658D01*
X239172955Y-128630721D01*
X239279055Y-128703215D01*
X239405000Y-128728720D01*
X240415102Y-128728720D01*
X240519882Y-128833500D01*
X240363375Y-128833500D01*
X240220500Y-128976375D01*
X240220500Y-129964500D01*
X241083625Y-129964500D01*
X241226500Y-129821625D01*
X241226500Y-129540118D01*
X241596280Y-129909898D01*
X241596280Y-131005000D01*
X241618419Y-131122658D01*
X241687955Y-131230721D01*
X241794055Y-131303215D01*
X241920000Y-131328720D01*
X243220000Y-131328720D01*
X243337658Y-131306581D01*
X243445721Y-131237045D01*
X243518215Y-131130945D01*
X243543720Y-131005000D01*
X243543720Y-129505000D01*
X243521581Y-129387342D01*
X243452045Y-129279279D01*
X243345945Y-129206785D01*
X243220000Y-129181280D01*
X242124898Y-129181280D01*
X240978720Y-128035102D01*
X240978720Y-126905000D01*
X240956581Y-126787342D01*
X240887045Y-126679279D01*
X240780945Y-126606785D01*
X240655000Y-126581280D01*
X239405000Y-126581280D01*
X239287342Y-126603419D01*
X239179279Y-126672955D01*
X239106785Y-126779055D01*
X239081280Y-126905000D01*
X239081280Y-127210500D01*
X238463720Y-127210500D01*
X238463720Y-126805000D01*
X238441581Y-126687342D01*
X238372045Y-126579279D01*
X238265945Y-126506785D01*
X238140000Y-126481280D01*
X236840000Y-126481280D01*
X236722342Y-126503419D01*
X236614279Y-126572955D01*
X236541785Y-126679055D01*
X236516280Y-126805000D01*
X236516280Y-127210500D01*
X235898720Y-127210500D01*
X235898720Y-126905000D01*
X235876581Y-126787342D01*
X235807045Y-126679279D01*
X235700945Y-126606785D01*
X235575000Y-126581280D01*
X234325000Y-126581280D01*
X234207342Y-126603419D01*
X234099279Y-126672955D01*
X234047500Y-126748737D01*
X234047500Y-124827500D01*
X244668882Y-124827500D01*
X243015102Y-126481280D01*
M02*
