G04 #@! TF.FileFunction,Legend,Top*
%FSLAX46Y46*%
G04 Gerber Fmt 4.6, Leading zero omitted, Abs format (unit mm)*
G04 Created by KiCad (PCBNEW 4.0.0-1rc2.201511201506+6189~38~ubuntu14.04.1-stable) date zo 29 nov 2015 16:22:11 CET*
%MOMM*%
G01*
G04 APERTURE LIST*
%ADD10C,0.100000*%
%ADD11C,0.150000*%
G04 APERTURE END LIST*
D10*
D11*
X251630000Y-132115000D02*
X251630000Y-131970000D01*
X247480000Y-132115000D02*
X247480000Y-131970000D01*
X247480000Y-126965000D02*
X247480000Y-127110000D01*
X251630000Y-126965000D02*
X251630000Y-127110000D01*
X251630000Y-132115000D02*
X247480000Y-132115000D01*
X251630000Y-126965000D02*
X247480000Y-126965000D01*
X251630000Y-131970000D02*
X253030000Y-131970000D01*
X255270000Y-133350000D02*
X247650000Y-133350000D01*
X255270000Y-135890000D02*
X247650000Y-135890000D01*
X258090000Y-136170000D02*
X256540000Y-136170000D01*
X247650000Y-133350000D02*
X247650000Y-135890000D01*
X255270000Y-135890000D02*
X255270000Y-133350000D01*
X256540000Y-133070000D02*
X258090000Y-133070000D01*
X258090000Y-133070000D02*
X258090000Y-136170000D01*
X237490000Y-135890000D02*
X245110000Y-135890000D01*
X237490000Y-133350000D02*
X245110000Y-133350000D01*
X234670000Y-133070000D02*
X236220000Y-133070000D01*
X245110000Y-135890000D02*
X245110000Y-133350000D01*
X237490000Y-133350000D02*
X237490000Y-135890000D01*
X236220000Y-136170000D02*
X234670000Y-136170000D01*
X234670000Y-136170000D02*
X234670000Y-133070000D01*
X239180000Y-128405000D02*
X239180000Y-129405000D01*
X240880000Y-129405000D02*
X240880000Y-128405000D01*
X234100000Y-128405000D02*
X234100000Y-129405000D01*
X235800000Y-129405000D02*
X235800000Y-128405000D01*
X243445000Y-128305000D02*
X243445000Y-129505000D01*
X241695000Y-129505000D02*
X241695000Y-128305000D01*
X238365000Y-128305000D02*
X238365000Y-129505000D01*
X236615000Y-129505000D02*
X236615000Y-128305000D01*
X254395000Y-129505000D02*
X254395000Y-128305000D01*
X256145000Y-128305000D02*
X256145000Y-129505000D01*
X257060000Y-127305000D02*
X257060000Y-130005000D01*
X258560000Y-127305000D02*
X258560000Y-130005000D01*
X257660000Y-128805000D02*
X257910000Y-128805000D01*
X257910000Y-128805000D02*
X257760000Y-128655000D01*
X258160000Y-128555000D02*
X257460000Y-128555000D01*
X257810000Y-128905000D02*
X257810000Y-129255000D01*
X257810000Y-128555000D02*
X258160000Y-128905000D01*
X258160000Y-128905000D02*
X257460000Y-128905000D01*
X257460000Y-128905000D02*
X257810000Y-128555000D01*
X248793095Y-125182381D02*
X248793095Y-125991905D01*
X248840714Y-126087143D01*
X248888333Y-126134762D01*
X248983571Y-126182381D01*
X249174048Y-126182381D01*
X249269286Y-126134762D01*
X249316905Y-126087143D01*
X249364524Y-125991905D01*
X249364524Y-125182381D01*
X250364524Y-126182381D02*
X249793095Y-126182381D01*
X250078809Y-126182381D02*
X250078809Y-125182381D01*
X249983571Y-125325238D01*
X249888333Y-125420476D01*
X249793095Y-125468095D01*
X255801905Y-132532381D02*
X255801905Y-131532381D01*
X256182858Y-131532381D01*
X256278096Y-131580000D01*
X256325715Y-131627619D01*
X256373334Y-131722857D01*
X256373334Y-131865714D01*
X256325715Y-131960952D01*
X256278096Y-132008571D01*
X256182858Y-132056190D01*
X255801905Y-132056190D01*
X257325715Y-132532381D02*
X256754286Y-132532381D01*
X257040000Y-132532381D02*
X257040000Y-131532381D01*
X256944762Y-131675238D01*
X256849524Y-131770476D01*
X256754286Y-131818095D01*
X235481905Y-132532381D02*
X235481905Y-131532381D01*
X235862858Y-131532381D01*
X235958096Y-131580000D01*
X236005715Y-131627619D01*
X236053334Y-131722857D01*
X236053334Y-131865714D01*
X236005715Y-131960952D01*
X235958096Y-132008571D01*
X235862858Y-132056190D01*
X235481905Y-132056190D01*
X236434286Y-131627619D02*
X236481905Y-131580000D01*
X236577143Y-131532381D01*
X236815239Y-131532381D01*
X236910477Y-131580000D01*
X236958096Y-131627619D01*
X237005715Y-131722857D01*
X237005715Y-131818095D01*
X236958096Y-131960952D01*
X236386667Y-132532381D01*
X237005715Y-132532381D01*
X239863334Y-126087143D02*
X239815715Y-126134762D01*
X239672858Y-126182381D01*
X239577620Y-126182381D01*
X239434762Y-126134762D01*
X239339524Y-126039524D01*
X239291905Y-125944286D01*
X239244286Y-125753810D01*
X239244286Y-125610952D01*
X239291905Y-125420476D01*
X239339524Y-125325238D01*
X239434762Y-125230000D01*
X239577620Y-125182381D01*
X239672858Y-125182381D01*
X239815715Y-125230000D01*
X239863334Y-125277619D01*
X240768096Y-125182381D02*
X240291905Y-125182381D01*
X240244286Y-125658571D01*
X240291905Y-125610952D01*
X240387143Y-125563333D01*
X240625239Y-125563333D01*
X240720477Y-125610952D01*
X240768096Y-125658571D01*
X240815715Y-125753810D01*
X240815715Y-125991905D01*
X240768096Y-126087143D01*
X240720477Y-126134762D01*
X240625239Y-126182381D01*
X240387143Y-126182381D01*
X240291905Y-126134762D01*
X240244286Y-126087143D01*
X234783334Y-126087143D02*
X234735715Y-126134762D01*
X234592858Y-126182381D01*
X234497620Y-126182381D01*
X234354762Y-126134762D01*
X234259524Y-126039524D01*
X234211905Y-125944286D01*
X234164286Y-125753810D01*
X234164286Y-125610952D01*
X234211905Y-125420476D01*
X234259524Y-125325238D01*
X234354762Y-125230000D01*
X234497620Y-125182381D01*
X234592858Y-125182381D01*
X234735715Y-125230000D01*
X234783334Y-125277619D01*
X235640477Y-125182381D02*
X235450000Y-125182381D01*
X235354762Y-125230000D01*
X235307143Y-125277619D01*
X235211905Y-125420476D01*
X235164286Y-125610952D01*
X235164286Y-125991905D01*
X235211905Y-126087143D01*
X235259524Y-126134762D01*
X235354762Y-126182381D01*
X235545239Y-126182381D01*
X235640477Y-126134762D01*
X235688096Y-126087143D01*
X235735715Y-125991905D01*
X235735715Y-125753810D01*
X235688096Y-125658571D01*
X235640477Y-125610952D01*
X235545239Y-125563333D01*
X235354762Y-125563333D01*
X235259524Y-125610952D01*
X235211905Y-125658571D01*
X235164286Y-125753810D01*
X242403334Y-126182381D02*
X242070000Y-125706190D01*
X241831905Y-126182381D02*
X241831905Y-125182381D01*
X242212858Y-125182381D01*
X242308096Y-125230000D01*
X242355715Y-125277619D01*
X242403334Y-125372857D01*
X242403334Y-125515714D01*
X242355715Y-125610952D01*
X242308096Y-125658571D01*
X242212858Y-125706190D01*
X241831905Y-125706190D01*
X243355715Y-126182381D02*
X242784286Y-126182381D01*
X243070000Y-126182381D02*
X243070000Y-125182381D01*
X242974762Y-125325238D01*
X242879524Y-125420476D01*
X242784286Y-125468095D01*
X237323334Y-126182381D02*
X236990000Y-125706190D01*
X236751905Y-126182381D02*
X236751905Y-125182381D01*
X237132858Y-125182381D01*
X237228096Y-125230000D01*
X237275715Y-125277619D01*
X237323334Y-125372857D01*
X237323334Y-125515714D01*
X237275715Y-125610952D01*
X237228096Y-125658571D01*
X237132858Y-125706190D01*
X236751905Y-125706190D01*
X237704286Y-125277619D02*
X237751905Y-125230000D01*
X237847143Y-125182381D01*
X238085239Y-125182381D01*
X238180477Y-125230000D01*
X238228096Y-125277619D01*
X238275715Y-125372857D01*
X238275715Y-125468095D01*
X238228096Y-125610952D01*
X237656667Y-126182381D01*
X238275715Y-126182381D01*
X255103334Y-126182381D02*
X254770000Y-125706190D01*
X254531905Y-126182381D02*
X254531905Y-125182381D01*
X254912858Y-125182381D01*
X255008096Y-125230000D01*
X255055715Y-125277619D01*
X255103334Y-125372857D01*
X255103334Y-125515714D01*
X255055715Y-125610952D01*
X255008096Y-125658571D01*
X254912858Y-125706190D01*
X254531905Y-125706190D01*
X255436667Y-125182381D02*
X256055715Y-125182381D01*
X255722381Y-125563333D01*
X255865239Y-125563333D01*
X255960477Y-125610952D01*
X256008096Y-125658571D01*
X256055715Y-125753810D01*
X256055715Y-125991905D01*
X256008096Y-126087143D01*
X255960477Y-126134762D01*
X255865239Y-126182381D01*
X255579524Y-126182381D01*
X255484286Y-126134762D01*
X255436667Y-126087143D01*
X257071905Y-126182381D02*
X257071905Y-125182381D01*
X257310000Y-125182381D01*
X257452858Y-125230000D01*
X257548096Y-125325238D01*
X257595715Y-125420476D01*
X257643334Y-125610952D01*
X257643334Y-125753810D01*
X257595715Y-125944286D01*
X257548096Y-126039524D01*
X257452858Y-126134762D01*
X257310000Y-126182381D01*
X257071905Y-126182381D01*
X258024286Y-125277619D02*
X258071905Y-125230000D01*
X258167143Y-125182381D01*
X258405239Y-125182381D01*
X258500477Y-125230000D01*
X258548096Y-125277619D01*
X258595715Y-125372857D01*
X258595715Y-125468095D01*
X258548096Y-125610952D01*
X257976667Y-126182381D01*
X258595715Y-126182381D01*
M02*
