G04 #@! TF.FileFunction,Legend,Bot*
%FSLAX46Y46*%
G04 Gerber Fmt 4.6, Leading zero omitted, Abs format (unit mm)*
G04 Created by KiCad (PCBNEW 4.0.0-1rc2.201511201506+6189~38~ubuntu14.04.1-stable) date wo 25 nov 2015 23:52:55 CET*
%MOMM*%
G01*
G04 APERTURE LIST*
%ADD10C,0.100000*%
%ADD11C,0.150000*%
G04 APERTURE END LIST*
D10*
D11*
X251841000Y-132461000D02*
X248793000Y-132461000D01*
X248793000Y-132461000D02*
X248793000Y-125349000D01*
X248793000Y-125349000D02*
X251841000Y-125349000D01*
X254889000Y-132461000D02*
X255651000Y-132461000D01*
X255651000Y-132461000D02*
X257937000Y-130937000D01*
X257937000Y-130937000D02*
X257937000Y-126873000D01*
X257937000Y-126873000D02*
X255651000Y-125349000D01*
X255651000Y-125349000D02*
X254889000Y-125349000D01*
X237970060Y-127105860D02*
X237619540Y-127105860D01*
X234469940Y-127105860D02*
X234820460Y-127105860D01*
X237970060Y-131155440D02*
X237619540Y-131155440D01*
X237970060Y-126654560D02*
X237619540Y-126654560D01*
X234469940Y-126654560D02*
X234820460Y-126654560D01*
X234469940Y-131155440D02*
X234820460Y-131155440D01*
X237970060Y-126654560D02*
X237970060Y-131155440D01*
X234469940Y-126654560D02*
X234469940Y-131155440D01*
X238545000Y-129405000D02*
X238545000Y-128405000D01*
X240245000Y-128405000D02*
X240245000Y-129405000D01*
X241085000Y-129405000D02*
X241085000Y-128405000D01*
X242785000Y-128405000D02*
X242785000Y-129405000D01*
X243625000Y-129405000D02*
X243625000Y-128405000D01*
X245325000Y-128405000D02*
X245325000Y-129405000D01*
X246165000Y-129405000D02*
X246165000Y-128405000D01*
X247865000Y-128405000D02*
X247865000Y-129405000D01*
X253579381Y-128143095D02*
X254388905Y-128143095D01*
X254484143Y-128190714D01*
X254531762Y-128238333D01*
X254579381Y-128333571D01*
X254579381Y-128524048D01*
X254531762Y-128619286D01*
X254484143Y-128666905D01*
X254388905Y-128714524D01*
X253579381Y-128714524D01*
X253674619Y-129143095D02*
X253627000Y-129190714D01*
X253579381Y-129285952D01*
X253579381Y-129524048D01*
X253627000Y-129619286D01*
X253674619Y-129666905D01*
X253769857Y-129714524D01*
X253865095Y-129714524D01*
X254007952Y-129666905D01*
X254579381Y-129095476D01*
X254579381Y-129714524D01*
X240133095Y-132532381D02*
X240133095Y-131532381D01*
X239895000Y-131532381D01*
X239752142Y-131580000D01*
X239656904Y-131675238D01*
X239609285Y-131770476D01*
X239561666Y-131960952D01*
X239561666Y-132103810D01*
X239609285Y-132294286D01*
X239656904Y-132389524D01*
X239752142Y-132484762D01*
X239895000Y-132532381D01*
X240133095Y-132532381D01*
X239180714Y-131627619D02*
X239133095Y-131580000D01*
X239037857Y-131532381D01*
X238799761Y-131532381D01*
X238704523Y-131580000D01*
X238656904Y-131627619D01*
X238609285Y-131722857D01*
X238609285Y-131818095D01*
X238656904Y-131960952D01*
X239228333Y-132532381D01*
X238609285Y-132532381D01*
X235211905Y-126182381D02*
X235211905Y-125182381D01*
X234640476Y-126182381D02*
X235069048Y-125610952D01*
X234640476Y-125182381D02*
X235211905Y-125753810D01*
X235188095Y-132246667D02*
X234711904Y-132246667D01*
X235283333Y-132532381D02*
X234950000Y-131532381D01*
X234616666Y-132532381D01*
X239561666Y-126087143D02*
X239609285Y-126134762D01*
X239752142Y-126182381D01*
X239847380Y-126182381D01*
X239990238Y-126134762D01*
X240085476Y-126039524D01*
X240133095Y-125944286D01*
X240180714Y-125753810D01*
X240180714Y-125610952D01*
X240133095Y-125420476D01*
X240085476Y-125325238D01*
X239990238Y-125230000D01*
X239847380Y-125182381D01*
X239752142Y-125182381D01*
X239609285Y-125230000D01*
X239561666Y-125277619D01*
X239180714Y-125277619D02*
X239133095Y-125230000D01*
X239037857Y-125182381D01*
X238799761Y-125182381D01*
X238704523Y-125230000D01*
X238656904Y-125277619D01*
X238609285Y-125372857D01*
X238609285Y-125468095D01*
X238656904Y-125610952D01*
X239228333Y-126182381D01*
X238609285Y-126182381D01*
X242101666Y-126087143D02*
X242149285Y-126134762D01*
X242292142Y-126182381D01*
X242387380Y-126182381D01*
X242530238Y-126134762D01*
X242625476Y-126039524D01*
X242673095Y-125944286D01*
X242720714Y-125753810D01*
X242720714Y-125610952D01*
X242673095Y-125420476D01*
X242625476Y-125325238D01*
X242530238Y-125230000D01*
X242387380Y-125182381D01*
X242292142Y-125182381D01*
X242149285Y-125230000D01*
X242101666Y-125277619D01*
X241768333Y-125182381D02*
X241149285Y-125182381D01*
X241482619Y-125563333D01*
X241339761Y-125563333D01*
X241244523Y-125610952D01*
X241196904Y-125658571D01*
X241149285Y-125753810D01*
X241149285Y-125991905D01*
X241196904Y-126087143D01*
X241244523Y-126134762D01*
X241339761Y-126182381D01*
X241625476Y-126182381D01*
X241720714Y-126134762D01*
X241768333Y-126087143D01*
X244641666Y-126087143D02*
X244689285Y-126134762D01*
X244832142Y-126182381D01*
X244927380Y-126182381D01*
X245070238Y-126134762D01*
X245165476Y-126039524D01*
X245213095Y-125944286D01*
X245260714Y-125753810D01*
X245260714Y-125610952D01*
X245213095Y-125420476D01*
X245165476Y-125325238D01*
X245070238Y-125230000D01*
X244927380Y-125182381D01*
X244832142Y-125182381D01*
X244689285Y-125230000D01*
X244641666Y-125277619D01*
X243784523Y-125515714D02*
X243784523Y-126182381D01*
X244022619Y-125134762D02*
X244260714Y-125849048D01*
X243641666Y-125849048D01*
X247181666Y-126087143D02*
X247229285Y-126134762D01*
X247372142Y-126182381D01*
X247467380Y-126182381D01*
X247610238Y-126134762D01*
X247705476Y-126039524D01*
X247753095Y-125944286D01*
X247800714Y-125753810D01*
X247800714Y-125610952D01*
X247753095Y-125420476D01*
X247705476Y-125325238D01*
X247610238Y-125230000D01*
X247467380Y-125182381D01*
X247372142Y-125182381D01*
X247229285Y-125230000D01*
X247181666Y-125277619D01*
X246276904Y-125182381D02*
X246753095Y-125182381D01*
X246800714Y-125658571D01*
X246753095Y-125610952D01*
X246657857Y-125563333D01*
X246419761Y-125563333D01*
X246324523Y-125610952D01*
X246276904Y-125658571D01*
X246229285Y-125753810D01*
X246229285Y-125991905D01*
X246276904Y-126087143D01*
X246324523Y-126134762D01*
X246419761Y-126182381D01*
X246657857Y-126182381D01*
X246753095Y-126134762D01*
X246800714Y-126087143D01*
M02*
